<svg id="Laag_1" xmlns="http://www.w3.org/2000/svg" viewBox="0 0 123 47"><style>.st0{fill:#f40034}.st1{fill:#FFF}</style><path class="st0" d="M0 0h123v47H0z"/><path class="st1" d="M91.8 32.4H96v-7.9c0-2.1.7-5.3 3.7-5.3 2.7 0 2.7 2.7 2.7 4.6v8.6h4.2V22.3c0-3.6-1.7-6.3-5.5-6.3-2.2 0-4 .7-5.3 2.6h-.1v-2.2h-4v16zm-3.2-4.3c-1.6.9-3.3 1.6-5.3 1.6-2.6 0-4.4-1.5-4.6-4.1h11.1c0-5.6-1.7-9.7-7.7-9.7-5 0-7.5 3.8-7.5 8.5 0 5.3 3.1 8.4 8.4 8.4 2.3 0 4-.4 5.5-1.3v-3.4zm-10-5.3c.2-2.2 1.4-3.8 3.7-3.8 2.3 0 3.3 1.8 3.4 3.8h-7.1zm-13.5-3.6c2.7 0 3.5 3 3.5 5.1 0 2.2-.8 5.2-3.5 5.2-2.8 0-3.7-2.9-3.7-5.2 0-2.2 1-5.1 3.7-5.1M57.2 39h4.2v-8.4h.1c1.5 1.8 2.9 2.2 4.7 2.2 5 0 6.9-4.1 6.9-8.5s-1.8-8.4-6.8-8.4c-2.5 0-4.1 1.1-5 2.7h-.1v-2.3h-4V39zm-2.8-22.5c-1.3-.3-2.6-.6-4.6-.6-3.3 0-6.3 1.5-6.3 5 0 5.8 7.3 3.7 7.3 6.8 0 1.6-1.7 2-2.8 2-1.4 0-2.8-.4-4.1-1.1l-.3 3.4c1.5.4 3.2.7 4.8.7 3.4 0 6.8-1.5 6.8-5.3 0-5.8-7.3-4.2-7.3-6.8 0-1.4 1.3-1.8 2.5-1.8 1.5 0 2.5.3 3.8.7l.2-3zm-17.2-2.2h4.2v-4h-4.2v4zm0 18.1h4.2V16.3h-4.2v16.1zm-3.1-21.3c-1.9-.6-3.9-.9-6.4-.9-7.4 0-12 4.2-12 11.7 0 7.4 4.9 10.9 12 10.9 2.3 0 4.8-.5 7.1-1.1V19.9H26v3.4h4.6V29c-.8.2-1.7.3-2.9.3-4.7 0-7.4-3.3-7.4-7.8s2.8-7.9 7.9-7.9c1.8 0 3.9.4 5.6 1.2l.3-3.7z"/></svg>