<svg width="30.239" height="30.239" xmlns="http://www.w3.org/2000/svg"><title>background</title><path fill="none" d="M-1-1h582v402H-1z"/><g><title>Layer 1</title><path fill="#474f48" d="M20.194 3.46c-4.613-4.613-12.12-4.613-16.734 0-4.612 4.614-4.612 12.12 0 16.735 4.108 4.107 10.506 4.547 15.116 1.34.097.46.32.897.676 1.254l6.718 6.717c.98.977 2.56.977 3.535 0a2.496 2.496 0 0 0 0-3.535l-6.718-6.72a2.5 2.5 0 0 0-1.253-.674c3.21-4.61 2.77-11.008-1.34-15.118zm-2.12 14.614c-3.445 3.444-9.05 3.444-12.493 0-3.44-3.444-3.44-9.048 0-12.492 3.444-3.443 9.05-3.443 12.493 0 3.444 3.444 3.444 9.048 0 12.492z"/></g></svg>